<svg id="Layer_1" enable-background="new 0 0 66 66" height="512" viewBox="0 0 66 66" width="512" xmlns="http://www.w3.org/2000/svg"><g><path d="m21.37 44.22-8.77-15.19-6.73 3.88c-4.19 2.43-5.63 7.79-3.2 11.99 2.42 4.19 7.78 5.63 11.98 3.21z"/><path d="m50.79 17.58c.19.32.52.5.87.5.17 0 .34-.04.5-.13l8.08-4.67c.48-.28.64-.89.37-1.37-.28-.48-.89-.64-1.37-.37l-8.08 4.67c-.48.28-.65.89-.37 1.37z"/><path d="m63.47 24.35-9.32.41c-.55.02-.98.49-.96 1.04.02.54.47.96 1 .96h.04l9.32-.41c.55-.02.98-.49.96-1.04-.02-.56-.48-.97-1.04-.96z"/><path d="m44.87 11.39c.17.11.35.16.54.16.33 0 .65-.16.84-.46l5.02-7.87c.3-.47.16-1.08-.3-1.38-.47-.3-1.08-.16-1.38.31l-5.02 7.87c-.3.46-.16 1.07.3 1.37z"/><path d="m21.02 46.73-5.38 3.11c-.72.41-1.48.72-2.26.96.96 4.78 3.41 9.14 7 12.44 1.34 1.23 3.32 1.43 4.89.52.04-.02.07-.04.11-.06 2.29-1.32 2.81-4.42 1.04-6.38-2.68-2.99-4.55-6.64-5.4-10.59z"/><path d="m34.4 26.57c-3.26-5.65-5.9-11.23-7.43-15.72-.87-2.57-1.34-4.61-1.4-6.19-2.05 2.7-3.1 7.14-4.5 10.96-1.65 5.17-3.92 9.27-6.91 12.1l9.13 15.82c3.95-1.18 8.64-1.09 13.94.06 4.03.69 8.44 2.02 11.81 1.57-5.87-3.63-13.64-16.88-14.64-18.6z"/><path d="m28.25 2.46c-1.85 1.07.18 8.19 4.6 17.02 3.19-1.5 7.05-.34 8.84 2.77 1.8 3.11.87 7.04-2.03 9.05 5.48 8.33 10.69 13.73 12.55 12.65 2.26-1.31-1.26-11.66-7.88-23.12s-13.81-19.68-16.08-18.37z"/></g></svg>