<svg id="Icons" viewBox="0 0 60 60" xmlns="http://www.w3.org/2000/svg"><path d="m28 5.23h4v6.77h-4z" fill="#48bca6"/><path d="m54 22h2c1.657 0 3 1.343 3 3v10c0 1.657-1.343 3-3 3h-2z" fill="#48bca6"/><path d="m6 22h-2c-1.657 0-3 1.343-3 3v10c0 1.657 1.343 3 3 3h2s0-16 0-16z" fill="#48bca6"/><path d="m14 49v8.561c0 1.16 1.3 1.84 2.26 1.18l14.17-9.742h18.57c3.31 0 6-2.69 6-6v-26c0-3.31-2.69-6-6-6h-38c-3.31 0-6 2.69-6 6v26c0 3.31 2.69 6 6 6h3z" fill="#50d6bf"/><circle cx="30" cy="4" fill="#50d6bf" r="3"/><circle cx="17" cy="26" fill="#6ff" r="4"/><circle cx="43" cy="26" fill="#6ff" r="4"/><path d="m25 34h10c.552 0 1 .448 1 1v2c0 1.656-1.344 3-3 3h-6c-1.656 0-3-1.344-3-3v-2c0-.552.448-1 1-1z" fill="#48bca6"/><g fill="#262626"><path d="m56 21v-4c0-3.86-3.141-7-7-7h-16v-3.382c.615-.703 1-1.612 1-2.618 0-2.206-1.794-4-4-4s-4 1.794-4 4c0 1.005.385 1.914 1 2.618v3.382h-9c-.553 0-1 .448-1 1s.447 1 1 1h31c2.757 0 5 2.243 5 5v26c0 2.757-2.243 5-5 5h-18.57c-.202 0-.399.062-.566.176l-14.17 9.741c-.194.135-.372.077-.462.03-.086-.046-.231-.156-.231-.386v-8.562c0-.553-.447-1-1-1h-3c-2.757 0-5-2.243-5-5v-26c0-2.757 2.243-5 5-5h3c.553 0 1-.448 1-1s-.447-1-1-1h-3c-3.859 0-7 3.14-7 7v4c-2.206 0-4 1.794-4 4v10c0 2.206 1.794 4 4 4v4c0 3.859 3.141 7 7 7h2v7.562c0 .907.498 1.733 1.301 2.155.357.188.748.281 1.137.281.486 0 .971-.146 1.389-.433l13.914-9.565h18.26c3.859 0 7-3.141 7-7v-4c2.206 0 4-1.794 4-4v-10c0-2.206-1.794-4-4-4zm-26-19c1.103 0 2 .897 2 2s-.897 2-2 2-2-.897-2-2 .897-2 2-2zm-1 5.858c.322.084.653.142 1 .142s.678-.058 1-.142v2.142h-2zm-27 27.142v-10c0-1.103.897-2 2-2v14c-1.103 0-2-.897-2-2zm56 0c0 1.103-.897 2-2 2v-14c1.103 0 2 .897 2 2z"/><path d="m12 26c0 2.757 2.243 5 5 5s5-2.243 5-5-2.243-5-5-5-5 2.243-5 5zm5-3c1.654 0 3 1.346 3 3s-1.346 3-3 3-3-1.346-3-3 1.346-3 3-3z"/><path d="m48 26c0-2.757-2.243-5-5-5s-5 2.243-5 5 2.243 5 5 5 5-2.243 5-5zm-8 0c0-1.654 1.346-3 3-3s3 1.346 3 3-1.346 3-3 3-3-1.346-3-3z"/><path d="m33 41c2.206 0 4-1.794 4-4v-2c0-1.103-.897-2-2-2h-10c-1.103 0-2 .897-2 2v2c0 2.206 1.794 4 4 4zm-8-4v-2h10v2c0 1.103-.897 2-2 2h-6c-1.103 0-2-.897-2-2z"/></g></svg>