<?xml version="1.0" encoding="utf-8"?>
<svg width="800px" height="800px" viewBox="0 0 24 24" xmlns="http://www.w3.org/2000/svg">
  <!-- Bug body outline -->
  <path fill="#2563eb" d="M5.947 8a13.059 13.059 0 0 0-.912 4H2v1h3a13.656 13.656 0 0 0 .589 4H3.15l-1.378 3.727.938.347L3.849 18h2.098c1.213 2.984 3.47 5 6.053 5s4.84-2.016 6.053-5h2.098l1.138 3.074.938-.347L20.849 17H18.41a13.656 13.656 0 0 0 .59-4h3v-1h-3.035a13.059 13.059 0 0 0-.912-4h2.796l1.378-3.727-.938-.347L20.151 7h-2.564a8.187 8.187 0 0 0-2.748-3.132l2.515-2.514-.707-.707-2.74 2.74a4.893 4.893 0 0 0-3.813 0L7.354.647l-.707.706L9.16 3.868A8.187 8.187 0 0 0 6.413 7H3.85L2.71 3.926l-.938.347L3.151 8zM12 4c2.449 0 4.556 2.214 5.488 5.375a12.684 12.684 0 0 0-10.976 0C7.444 6.216 9.552 4 12 4zm0 18a4.196 4.196 0 0 1-1.848-.441L12 11.987l1.848 9.572A4.196 4.196 0 0 1 12 22zm2.756-1.015l-2.094-10.848a10.973 10.973 0 0 0-1.324 0L9.244 20.985C7.319 19.485 6 16.472 6 13a13.191 13.191 0 0 1 .216-2.355l.356-.197h.001a11.622 11.622 0 0 1 10.854 0l.358.197A13.191 13.191 0 0 1 18 13c0 3.472-1.32 6.485-3.244 7.985z"/>
  <!-- Orange bottom section - adjusted -->
  <path fill="#DA9C14" d="M6.216 10.645A13.191 13.191 0 0 0 6 13c0 3.472 1.319 6.485 3.244 7.985L11.338 10.137a10.973 10.973 0 0 1 1.324 0l2.094 10.848C16.68 19.485 18 16.472 18 13a13.191 13.191 0 0 0-.216-2.355 11.622 11.622 0 0 0-11.568 0z"/>
  <path fill="none" d="M0 0h24v24H0z"/>
</svg>