<?xml version="1.0" encoding="utf-8"?>
<!-- Uploaded to: SVG Repo, www.svgrepo.com, Generator: SVG Repo Mixer Tools -->
<svg width="800px" height="800px" viewBox="0 0 1024 1024" class="icon"  version="1.1" xmlns="http://www.w3.org/2000/svg"><path d="M928.415185 352.31894l-0.193514-0.391124v432.097013c0 20.877022-17.029261 37.903211-37.906282 37.903211H667.970499v70.658326c0 20.877022-16.962708 37.903211-37.903211 37.903211H131.162782c-20.91081 0-37.903211-17.026189-37.903211-37.903211v-650.720079c0-24.401235 26.745932-37.906282 45.211704-37.906283h215.002608v-70.655254c0-24.401235 26.750028-37.906282 45.211704-37.906283h259.500664l10.438511 0.066553c32.0343 0 71.046379 7.696546 163.103908 99.884109l7.044331 6.914297c31.316557 30.730894 89.642184 87.947654 89.642184 150.055514z" fill="#27323A" /><path d="M749.458461 187.32494c9.19961 30.140112 12.459661 61.586702 13.505047 79.791383 24.85584 1.042315 52.063545 2.999984 77.767162 10.174348-13.244981-15.786264-27.271186-29.682436-37.058505-39.273169l-7.371975-7.241941c-18.070552-18.138129-33.466716-32.230886-46.841729-43.450621z" fill="#FFFFFF" /><path d="M618.062233 460.880477c0-6.981874-1.827635-14.219719-4.373014-21.46166-30.531237-27.337738-81.421409-29.295407-122.327675-30.861951l-5.414306-0.260067c-8.938519-0.327643-16.080119-7.699618-16.080119-16.635065 0-38.363959-9.58971-104.974867-36.469772-131.463804l-1.957668-2.02115c-10.766154-3.98189-23.225815-4.045371-23.225815-4.045371h-264.848417v626.252292h474.499176V460.489353l0.19761 0.391124z" fill="#F4CE73" /><path d="M502.715408 375.67786c24.85584 1.042315 52.063545 2.999984 77.833714 10.174349-13.311533-15.786264-27.274257-29.682436-37.058505-39.27317l-7.371974-7.241941c-18.138129-18.138129-33.534292-32.230886-46.845826-43.451645 9.137153 30.141136 12.397204 61.587726 13.442591 79.792407z" fill="#FFFFFF" /><path d="M878.310333 352.31894c0-6.981874-1.891116-14.219719-4.368918-21.46166-30.600861-27.337738-81.421409-29.295407-122.330747-30.861951l-5.414306-0.260067c-9.002-0.327643-16.047355-7.699618-16.047355-16.635065 0-38.363959-9.657286-104.974867-36.469771-131.463804l-1.957669-2.02115c-10.766154-3.98189-17.878062-4.045371-23.292367-4.045371l-10.371958-0.066552s-244.036924 0.58771-254.476459 0.58771v57.935527h4.763114c32.097781 0 71.080167 7.696546 163.136673 99.884109l7.044331 6.914298c31.383109 30.730894 89.642184 87.948678 89.642184 150.056537l-0.19761-0.391124v311.332811h210.14632V351.92884l0.194538 0.3901z" fill="#79CCBF" /><path d="M533.05313 509.422881c11.089702 0 20.029245 9.002 20.029245 20.092725 0 11.026221-8.938519 20.029245-20.029245 20.029245H240.736941c-11.026221 0-19.995457-9.002-19.995456-20.029245 0-11.089702 8.969235-20.092726 19.995456-20.092725h292.316189zM240.736941 601.2828c-11.026221 0-19.995457 9.002-19.995456 20.092726 0 11.026221 8.969235 20.029245 19.995456 20.029245h292.316189c11.089702 0 20.029245-9.002 20.029245-20.029245 0-11.089702-8.938519-20.092726-20.029245-20.092726H240.736941z" fill="#27323A" /></svg>