<?xml version="1.0" encoding="utf-8"?>
<svg
    xmlns="http://www.w3.org/2000/svg"
    viewBox="0 0 256 256"
>
    <path
        fill="#662482"
        d="M231.2 159.5c0 20.7 0 31.1-3.5 42.2-4.4 12.2-14 21.8-26.2 26.2-11.1 3.5-21.5 3.5-42.2 3.5H96.8c-20.7 0-31.1 0-42.2-3.5-12.2-4.4-21.8-14-26.2-26.2-3.5-11.1-3.5-21.5-3.5-42.2V97c0-20.7 0-31.1 3.5-42.2 4.4-12.2 14-21.8 26.2-26.2 11.2-3.5 21.5-3.5 42.2-3.5h62.5c20.7 0 31.1 0 42.2 3.5 12.2 4.4 21.8 14 26.2 26.2 3.5 11.2 3.5 21.5 3.5 42.2v62.5Z"
    />
    <path
        fill="#fff"
        d="M210.8 199.4c0 3.1-2.5 5.7-5.7 5.7h-68c-3.1 0-5.7-2.5-5.7-5.7v-15.5c.3-19 2.3-37.2 6.5-45.5 2.5-5 6.7-7.7 11.5-9.1 9.1-2.7 24.9-.9 31.7-1.2 0 0 20.4.8 20.4-10.7s-9.1-8.6-9.1-8.6c-10 .3-17.7-.4-22.6-2.4-8.3-3.3-8.6-9.2-8.6-11.2-.4-23.1-34.5-25.9-64.5-20.1-32.8 6.2.4 53.3.4 116.1v8.4c0 3.1-2.6 5.6-5.7 5.6H57.7c-3.1 0-5.7-2.5-5.7-5.7v-144c0-3.1 2.5-5.7 5.7-5.7h31.7c3.1 0 5.7 2.5 5.7 5.7 0 4.7 5.2 7.2 9 4.5 11.4-8.2 26-12.5 42.4-12.5 36.6 0 64.4 21.4 64.4 68.7v83.2ZM150 99.3c0-6.7-5.4-12.1-12.1-12.1s-12.1 5.4-12.1 12.1 5.4 12.1 12.1 12.1S150 106 150 99.3Z"
    />
</svg>