<svg id="Capa_1" enable-background="new 0 0 512 512" height="512" viewBox="0 0 512 512" width="512" xmlns="http://www.w3.org/2000/svg"><g><path d="m492.894 183.701h-167.116l-51.641-158.936c-5.709-17.569-30.565-17.569-36.273 0l-51.642 158.936-133.889 29.966 340.667 276 22.803 5.175c4.794-4.669 7.24-11.79 4.741-19.478l-51.642-158.937 135.199-98.228c14.947-10.859 7.266-34.498-11.207-34.498z" fill="#ffe07d"/><path d="m19.107 183.701c-18.474 0-26.155 23.64-11.209 34.498l135.199 98.228-51.642 158.936c-5.709 17.569 14.4 32.179 29.346 21.321l135.199-98.228 135.199 98.228c8.405 6.107 18.444 4.158 24.604-1.842l-252.929-217.681c-5.242-4.512-7.118-11.812-4.7-18.292l28.047-75.168z" fill="#ffd064"/><g fill="#fff"><path d="m258.685 324.019c-4.565 0-8.258-3.698-8.258-8.258v-82.976c0-4.56 3.694-8.258 8.258-8.258 4.565 0 8.258 3.698 8.258 8.258v82.976c0 4.561-3.693 8.258-8.258 8.258z"/><path d="m196.177 324.019c-4.274 0-8.105-2.698-9.548-6.73l-28.379-81.798c-1.5-4.306.782-9.012 5.089-10.508 4.315-1.5 9.024.786 10.508 5.097l22.202 63.956 21.161-63.702c1.444-4.331 6.121-6.677 10.444-5.234 4.331 1.44 6.669 6.113 5.234 10.444l-27.097 81.552c-1.411 4.133-5.234 6.891-9.54 6.923-.025 0-.05 0-.074 0z"/><path d="m320.21 224.527h-23.105c-2.194 0-4.298.875-5.847 2.427-1.549 1.549-2.406 3.647-2.406 5.831h-.006v82.976c0 4.56 3.694 8.258 8.258 8.258s8.258-3.698 8.258-8.258v-27.829c5.136-.028 11.42-.058 14.847-.058 17.718 0 32.137-14.21 32.137-31.673s-14.419-31.674-32.136-31.674zm0 46.831c-3.395 0-9.613.028-14.726.056-.032-5.266-.056-11.734-.056-15.214 0-2.931-.016-9.657-.04-15.157h14.823c8.468 0 15.621 6.94 15.621 15.157-.001 8.219-7.155 15.158-15.622 15.158z"/></g><path d="m146.544 178.998c-18.629-3.323-33.371-18.065-36.685-36.698-.435-2.371-2.468-4.089-4.839-4.089s-4.403 1.718-4.839 4.105c-3.315 18.617-18.056 33.359-36.669 36.681-2.387.419-4.113 2.452-4.113 4.835s1.726 4.415 4.105 4.835c18.621 3.323 33.363 18.065 36.677 36.698.435 2.371 2.468 4.089 4.839 4.089s4.403-1.718 4.839-4.105c3.315-18.617 18.056-33.359 36.685-36.681 2.371-.423 4.097-2.456 4.097-4.835 0-2.38-1.726-4.412-4.097-4.835z" fill="#fff0af"/><path d="m417.508 395.529c-7.97-6.446-11.948-16.735-10.381-26.883.357-2.404-.887-4.677-3.099-5.655-2.213-.978-4.731-.367-6.276 1.533-6.442 7.971-16.738 11.956-26.86 10.4-2.415-.38-4.694.866-5.677 3.09s-.37 4.748 1.529 6.275c7.971 6.442 11.956 16.738 10.388 26.886-.357 2.404.887 4.677 3.099 5.655 2.213.978 4.731.367 6.276-1.533 6.442-7.971 16.738-11.956 26.86-10.4 2.415.38 4.694-.866 5.677-3.09s.371-4.747-1.536-6.278z" fill="#fff0af"/></g></svg>