<svg id="Capa_1" enable-background="new 0 0 512 512" height="512" viewBox="0 0 512 512" width="512" xmlns="http://www.w3.org/2000/svg"><g><g><path d="m285.577 142.768h-226.823c-28.311 0-51.262 22.951-51.262 51.262v193.845c0 28.311 22.951 51.263 51.263 51.263h13.444c4.695 0 8.822 3.204 9.894 7.775 4.117 17.547-10.746 34.113-20.188 42.582-2.266 2.032-.661 5.761 2.375 5.564 52.553-3.41 68.419-34.63 72.946-48.883 1.336-4.205 5.266-7.038 9.678-7.038h138.674c28.311 0 51.262-22.951 51.262-51.262v-193.846c-.001-28.311-22.952-51.262-51.263-51.262z" fill="#fe7ab6"/></g><g><path d="m125.932 439.133h20.974c-4.415 0-8.35 2.837-9.678 7.041-4.534 14.252-20.395 45.474-72.949 48.879-1.718.11-2.976-1.029-3.336-2.407 38.622-8.359 51.326-33.958 55.311-46.472 1.328-4.205 5.263-7.041 9.678-7.041z" fill="#fe5ca7"/></g><g><path d="m336.84 194.027v193.849c0 28.305-22.951 51.256-51.266 51.256h-20.974c28.315 0 51.266-22.951 51.266-51.256v-193.849c0-28.305-22.951-51.256-51.266-51.256h20.974c28.314 0 51.266 22.951 51.266 51.256z" fill="#fe5ca7"/></g><g><path d="m453.247 16.935h-226.823c-28.311 0-51.262 22.951-51.262 51.262v193.845c0 28.311 22.951 51.263 51.263 51.263h138.673c4.412 0 8.343 2.833 9.678 7.038 4.527 14.253 20.393 45.473 72.946 48.883 3.037.197 4.641-3.533 2.375-5.564-9.442-8.468-24.306-25.034-20.188-42.582 1.072-4.571 5.199-7.775 9.894-7.775h13.444c28.311 0 51.262-22.951 51.262-51.262v-193.846c0-28.311-22.95-51.262-51.262-51.262z" fill="#6ed5a1"/></g><g><path d="m504.512 68.193v193.849c0 28.315-22.951 51.266-51.266 51.266h-13.443c-4.694 0-8.819 3.196-9.898 7.77-4.115 17.548 10.747 34.118 20.195 42.577 2.267 2.038.659 5.763-2.377 5.573-6.043-.39-11.596-1.149-16.699-2.217.37-1.108.15-2.417-.899-3.356-9.448-8.459-24.31-25.029-20.195-42.577 1.079-4.574 5.204-7.77 9.898-7.77h13.443c28.315 0 51.266-22.951 51.266-51.266v-193.849c0-28.305-22.951-51.256-51.266-51.256h19.975c28.314 0 51.266 22.952 51.266 51.256z" fill="#46cc8d"/></g><g><path d="m350.589 89.717 17.191 34.832c1.747 3.539 5.123 5.993 9.029 6.56l38.44 5.586c9.836 1.429 13.764 13.517 6.646 20.455l-27.815 27.113c-2.826 2.755-4.116 6.724-3.449 10.615l6.566 38.284c1.68 9.796-8.602 17.267-17.4 12.642l-34.381-18.075c-3.494-1.837-7.667-1.837-11.161 0l-34.381 18.075c-8.798 4.625-19.08-2.845-17.4-12.642l6.566-38.284c.667-3.89-.623-7.86-3.449-10.615l-27.815-27.113c-7.118-6.938-3.19-19.026 6.646-20.455l38.44-5.586c3.906-.568 7.283-3.021 9.029-6.56l17.191-34.832c4.399-8.913 17.108-8.913 21.507 0z" fill="#fedf30"/></g><g><path d="m394.079 184.259c-2.827 2.757-4.115 6.732-3.446 10.617l6.562 38.282c1.678 9.798-8.599 17.269-17.398 12.644l-13.633-7.171c3.685-2.457 6.023-6.911 5.154-11.985l-6.572-38.292c-.659-3.885.629-7.85 3.456-10.607l27.815-27.116c4.954-4.834 4.554-12.155.539-16.649l18.697 2.717c9.828 1.428 13.763 13.513 6.642 20.455z" fill="#fac600"/></g><g><path d="m84.194 251.021h54.452c4.137 0 7.491-3.354 7.491-7.491s-3.353-7.491-7.491-7.491h-54.452c-4.137 0-7.491 3.354-7.491 7.491.001 4.137 3.354 7.491 7.491 7.491z"/><path d="m84.194 282.636h54.452c4.137 0 7.491-3.354 7.491-7.491s-3.353-7.491-7.491-7.491h-54.452c-4.137 0-7.491 3.354-7.491 7.491.001 4.137 3.354 7.491 7.491 7.491z"/><path d="m84.194 314.25h54.452c4.137 0 7.491-3.354 7.491-7.491s-3.353-7.491-7.491-7.491h-54.452c-4.137 0-7.491 3.354-7.491 7.491s3.354 7.491 7.491 7.491z"/><path d="m84.194 345.865h98.673c4.137 0 7.491-3.354 7.491-7.491s-3.353-7.491-7.491-7.491h-98.673c-4.137 0-7.491 3.354-7.491 7.491s3.354 7.491 7.491 7.491z"/><path d="m453.247 9.445h-226.823c-32.396 0-58.753 26.356-58.753 58.753v67.08h-108.918c-32.396-.001-58.753 26.356-58.753 58.752v109.904c0 4.137 3.353 7.491 7.491 7.491s7.491-3.354 7.491-7.491v-109.904c0-24.135 19.636-43.771 43.772-43.771h108.917v111.783c0 32.397 26.357 58.753 58.753 58.753h102.925v67.08c0 24.136-19.636 43.771-43.772 43.771h-138.673c-7.731 0-14.489 4.927-16.818 12.26-4.34 13.664-17.112 36.127-54.472 42.335 8.965-10.348 17.524-25.049 13.771-41.04-1.872-7.981-8.939-13.555-17.187-13.555h-13.445c-24.136 0-43.772-19.636-43.772-43.772v-49.5c0-4.137-3.353-7.491-7.491-7.491s-7.49 3.355-7.49 7.492v49.5c0 32.397 26.357 58.753 58.753 58.753h13.444c1.236 0 2.33.839 2.601 1.995 1.394 5.938.922 18.418-17.897 35.294-3.436 3.083-4.501 7.823-2.713 12.078 1.679 3.992 5.59 6.561 9.878 6.561.231 0 .463-.007.696-.022 57.522-3.732 74.83-39.07 79.601-54.091.344-1.085 1.365-1.814 2.539-1.814h138.674c32.396 0 58.753-26.356 58.753-58.753v-67.08h20.767c1.174 0 2.195.729 2.539 1.814 4.771 15.021 22.076 50.358 79.601 54.091 4.392.285 8.813-2.349 10.575-6.539 1.789-4.254.724-8.994-2.712-12.077-18.819-16.877-19.291-29.357-17.898-35.294.271-1.156 1.366-1.995 2.601-1.995h13.444c32.396 0 58.753-26.356 58.753-58.753v-193.846c.001-32.396-26.356-58.752-58.752-58.752zm43.772 252.597c0 24.136-19.636 43.772-43.772 43.772h-13.444c-8.246 0-15.313 5.573-17.187 13.554-1.856 7.912-2.065 22.906 13.718 41.032-37.315-6.223-50.081-28.669-54.419-42.327-2.33-7.333-9.088-12.26-16.817-12.26h-138.674c-24.136 0-43.772-19.636-43.772-43.772v-193.844c0-24.135 19.636-43.771 43.772-43.771h226.823c24.136 0 43.772 19.636 43.772 43.771z"/><path d="m416.326 129.282-38.439-5.585c-1.889-.275-2.988-1.647-3.748-3.188-1.829-3.71-6.319-5.235-10.03-3.406-3.71 1.829-5.236 6.32-3.406 10.031 2.927 5.936 8.25 10.404 15.03 11.389 0 0 38.393 5.579 38.44 5.585 3.446.501 5.229 5.012 2.494 7.678l-27.815 27.113c-4.592 4.477-6.687 10.924-5.602 17.245 0 0 6.566 38.285 6.566 38.285.631 3.688-3.246 6.473-6.532 4.744l-34.381-18.075c-5.68-2.985-12.457-2.983-18.133 0l-34.381 18.075c-3.323 1.75-7.105-1.4-6.532-4.745.012-.07 6.567-38.284 6.567-38.284 1.084-6.321-1.011-12.768-5.603-17.245l-27.815-27.113c-2.674-2.607-1.219-7.138 2.494-7.678l38.439-5.585c6.348-.922 11.831-4.906 14.67-10.657l17.19-34.832c1.657-3.358 6.435-3.32 8.073 0l1.6 3.241c1.831 3.709 6.32 5.235 10.032 3.403 3.709-1.831 5.233-6.322 3.402-10.032l-1.6-3.242c-3.306-6.699-10-10.861-17.47-10.861-7.471 0-14.165 4.162-17.472 10.861l-17.19 34.832c-.656 1.329-1.923 2.25-3.389 2.463l-38.44 5.585c-7.392 1.074-13.418 6.155-15.727 13.259s-.419 14.758 4.929 19.972l27.815 27.113c1.061 1.034 1.545 2.524 1.295 3.985l-6.566 38.284c-1.263 7.362 1.706 14.664 7.75 19.055 6.044 4.393 13.906 4.959 20.518 1.483l34.381-18.075c1.31-.689 2.877-.69 4.189 0 0 0 34.365 18.067 34.381 18.075 13.89 7.302 30.961-4.841 28.269-20.538-.003-.019-6.566-38.285-6.566-38.285-.25-1.46.234-2.95 1.295-3.985l27.815-27.113c5.349-5.215 7.238-12.868 4.929-19.973-2.307-7.104-8.333-12.185-15.726-13.259z"/></g></g></svg>