<svg height="512" width="512" version="1.1" id="Layer_1" xmlns="http://www.w3.org/2000/svg" xmlns:xlink="http://www.w3.org/1999/xlink" viewBox="0 0 512 512" xml:space="preserve" class="">
<g transform="translate(1 1)" class="draggable">
	<path style="fill:#E2E3E5;" d="M511,255c0,130.844-106.193,237.037-237.037,237.037S36.926,385.844,36.926,255&#10;&#9;&#9;S143.119,17.963,273.963,17.963S511,124.156,511,255" class="draggable" transform="translate(1.000030517578125,0)"/>
	<path style="fill:#CCCCCC;" d="M482.556,255c0,130.844-106.193,237.037-237.037,237.037S8.481,385.844,8.481,255&#10;&#9;&#9;S114.674,17.963,245.519,17.963S482.556,124.156,482.556,255" class="draggable"/>
	<path style="fill:#E2E3E5;" d="M454.111,255c0,130.844-92.919,237.037-208.593,237.037S36.926,385.844,36.926,255&#10;&#9;&#9;S130.793,17.963,245.519,17.963S454.111,124.156,454.111,255" class="draggable" transform="translate(-1.000030517578125,-1.000030517578125)"/>
	<path style="fill:#FFFFFF;" d="M36.926,255c0-130.844,93.867-237.037,208.593-237.037C114.674,17.963,8.481,124.156,8.481,255&#10;&#9;&#9;s106.193,237.037,237.037,237.037C130.793,492.037,36.926,385.844,36.926,255" class="draggable"/>
	<path style="fill:#003;" d="M55.889,397.222c43.615,57.837,111.881,94.815,189.63,94.815s146.015-36.978,189.63-94.815H55.889z" class="draggable"/>
	<path style="fill:#00B;" d="M65.37,397.222c43.615,57.837,83.437,94.815,161.185,94.815s117.57-36.978,161.185-94.815H65.37z" class="draggable selected"/>
	<g class="draggable">
		<path style="fill:#44;" d="M245.519,501.519C109.933,501.519-1,390.585-1,255S109.933,8.481,245.519,8.481&#10;&#9;&#9;&#9;S492.037,119.415,492.037,255S381.104,501.519,245.519,501.519z M245.519,27.444c-125.156,0-227.556,102.4-227.556,227.556&#10;&#9;&#9;&#9;s102.4,227.556,227.556,227.556S473.074,380.156,473.074,255S370.674,27.444,245.519,27.444z" class="draggable"/>
		<path style="fill:#000;" d="M245.519,501.519c-78.696,0-149.807-36.03-197.215-98.607c-1.896-2.844-2.844-6.637-0.948-9.481&#10;&#9;&#9;&#9;c1.896-2.844,4.741-5.689,8.533-5.689h379.259c3.793,0,6.637,1.896,8.533,5.689c1.896,2.844,0.948,6.637-0.948,9.481&#10;&#9;&#9;&#9;C395.326,465.489,324.215,501.519,245.519,501.519z M75.8,406.704c43.615,48.356,104.296,75.852,169.719,75.852&#10;&#9;&#9;&#9;s126.104-27.496,169.719-75.852H75.8z" class="draggable"/>
	</g>
</g>
</svg>